<svg xmlns="http://www.w3.org/2000/svg" width="24" height="24" viewBox="0 0 24 24">
  <g id="circle_right" transform="translate(-2.02 -2.02)">
    <path id="Subtraction_3" data-name="Subtraction 3" d="M-636.979-1016.979a11.922,11.922,0,0,1-8.486-3.515,11.922,11.922,0,0,1-3.515-8.486,11.921,11.921,0,0,1,3.515-8.485,11.923,11.923,0,0,1,8.486-3.514,11.921,11.921,0,0,1,8.485,3.514,11.922,11.922,0,0,1,3.514,8.485,11.923,11.923,0,0,1-3.514,8.486A11.921,11.921,0,0,1-636.979-1016.979Zm-1.829-19.5a1.511,1.511,0,0,0-1.076.446,1.511,1.511,0,0,0-.446,1.075,1.511,1.511,0,0,0,.446,1.076l4.846,4.847-4.846,4.847a1.511,1.511,0,0,0-.446,1.076,1.511,1.511,0,0,0,.446,1.076,1.511,1.511,0,0,0,1.076.445,1.511,1.511,0,0,0,1.076-.445l5.81-5.811a1.52,1.52,0,0,0,.441-1.188,1.52,1.52,0,0,0-.441-1.188l-5.81-5.81A1.511,1.511,0,0,0-638.808-1036.481Z" transform="translate(651 1043)" fill="#3a598c"/>
  </g>
</svg>
