<svg xmlns="http://www.w3.org/2000/svg" width="24" height="24" viewBox="0 0 24 24">
  <g id="circle_left" transform="translate(0 0)">
    <path id="Subtraction_3" data-name="Subtraction 3" d="M12,24A12,12,0,0,1,3.515,3.515,12,12,0,0,1,20.486,20.486,11.921,11.921,0,0,1,12,24ZM10.171,4.613A1.522,1.522,0,0,0,9.1,7.211l4.848,4.847L9.1,16.906a1.521,1.521,0,0,0,2.152,2.151l5.81-5.81a1.518,1.518,0,0,0,.441-1.188,1.52,1.52,0,0,0-.441-1.188L11.246,5.059A1.511,1.511,0,0,0,10.171,4.613Z" transform="translate(24 24) rotate(180)" fill="#3a598c"/>
  </g>
</svg>
