<svg xmlns="http://www.w3.org/2000/svg" width="188.5" height="102.816" viewBox="0 0 188.5 102.816">
  <g id="info-nodata" transform="translate(-70.441 -363.481)">
    <g id="frown" transform="translate(126.819 386.652)">
      <path id="Path_31" data-name="Path 31" d="M38.207,0A38.207,38.207,0,1,1,0,38.207,38.207,38.207,0,0,1,38.207,0Z" transform="translate(0 0)" fill="none" stroke="#3a598c" stroke-linecap="round" stroke-width="4"/>
      <path id="Path_29" data-name="Path 29" d="M20.191,15.338A12.941,12.941,0,0,0,14.1,14,12.941,12.941,0,0,0,8,15.338" transform="translate(24.112 48.034)" fill="none" stroke="#3a598c" stroke-linecap="round" stroke-linejoin="round" stroke-width="5"/>
      <line id="Line_31" data-name="Line 31" x2="0.039" transform="translate(26.455 48.881)" fill="none" stroke="#3a598c" stroke-linecap="round" stroke-linejoin="round" stroke-width="6"/>
      <line id="Line_32" data-name="Line 32" x2="0.039" transform="translate(49.959 48.881)" fill="none" stroke="#3a598c" stroke-linecap="round" stroke-linejoin="round" stroke-width="6"/>
      <g id="Group_9" data-name="Group 9" transform="translate(58.556 17.858)">
        <line id="Line_35" data-name="Line 35" y2="9.323" transform="translate(0 1.752)" fill="none" stroke="#3a598c" stroke-linecap="round" stroke-width="2"/>
        <line id="Line_37" data-name="Line 37" y2="9.323" transform="translate(9.967 7.843)" fill="none" stroke="#3a598c" stroke-linecap="round" stroke-width="2"/>
        <line id="Line_36" data-name="Line 36" y2="19.103" transform="translate(4.984 0)" fill="none" stroke="#3a598c" stroke-linecap="round" stroke-width="2"/>
      </g>
    </g>
    <g id="music" transform="translate(202.933 372.905) rotate(-16)">
      <path id="Path_30" data-name="Path 30" d="M0,23.059V3.075L18.447,0V19.984" transform="translate(9.013 0)" fill="none" stroke="#3a598c" stroke-linecap="round" stroke-linejoin="round" stroke-width="3"/>
      <circle id="Ellipse_13" data-name="Ellipse 13" cx="4.301" cy="4.301" r="4.301" transform="translate(0 18.858)" stroke-width="3" stroke="#3a598c" stroke-linecap="round" stroke-linejoin="round" fill="none"/>
      <ellipse id="Ellipse_14" data-name="Ellipse 14" cx="4.301" cy="4.244" rx="4.301" ry="4.244" transform="translate(18.588 14.756)" fill="none" stroke="#3a598c" stroke-linecap="round" stroke-linejoin="round" stroke-width="3"/>
    </g>
    <g id="music-2" data-name="music" transform="translate(96.016 450.995) rotate(-16)">
      <path id="Path_30-2" data-name="Path 30" d="M0,12.286V1.638L9.829,0V10.648" transform="translate(4.802 0)" fill="none" stroke="#3a598c" stroke-linecap="round" stroke-linejoin="round" stroke-width="2"/>
      <circle id="Ellipse_13-2" data-name="Ellipse 13" cx="2.292" cy="2.292" r="2.292" transform="translate(0 10.048)" stroke-width="2" stroke="#3a598c" stroke-linecap="round" stroke-linejoin="round" fill="none"/>
      <ellipse id="Ellipse_14-2" data-name="Ellipse 14" cx="2.292" cy="2.261" rx="2.292" ry="2.261" transform="translate(9.904 7.862)" fill="none" stroke="#3a598c" stroke-linecap="round" stroke-linejoin="round" stroke-width="2"/>
    </g>
    <g id="plus" transform="translate(225.679 418.643)">
      <line id="Line_33" data-name="Line 33" y2="12" transform="translate(5.261 0.187)" fill="none" stroke="#3a598c" stroke-linecap="round" stroke-linejoin="round" stroke-width="2"/>
      <line id="Line_34" data-name="Line 34" x2="11" transform="translate(0.261 6.187)" fill="none" stroke="#3a598c" stroke-linecap="round" stroke-linejoin="round" stroke-width="2"/>
    </g>
    <g id="plus-2" data-name="plus" transform="translate(72 392.081)">
      <line id="Line_33-2" data-name="Line 33" y2="18" transform="translate(9.941 -0.252)" fill="none" stroke="#3a598c" stroke-linecap="round" stroke-linejoin="round" stroke-width="3"/>
      <line id="Line_34-2" data-name="Line 34" x2="18" transform="translate(-0.059 8.748)" fill="none" stroke="#3a598c" stroke-linecap="round" stroke-linejoin="round" stroke-width="3"/>
    </g>
    <g id="plus-3" data-name="plus" transform="translate(103.305 425.284)">
      <line id="Line_33-3" data-name="Line 33" y2="7" transform="translate(3.636 -0.454)" fill="none" stroke="#3a598c" stroke-linecap="round" stroke-linejoin="round" stroke-width="3"/>
      <line id="Line_34-3" data-name="Line 34" x2="7" transform="translate(-0.364 3.546)" fill="none" stroke="#3a598c" stroke-linecap="round" stroke-linejoin="round" stroke-width="3"/>
    </g>
    <g id="plus-4" data-name="plus" transform="translate(234.291 454.794)">
      <line id="Line_33-4" data-name="Line 33" y2="6" transform="translate(1.65 0.036)" fill="none" stroke="#3a598c" stroke-linecap="round" stroke-linejoin="round" stroke-width="2"/>
      <line id="Line_34-4" data-name="Line 34" x2="6" transform="translate(-1.35 3.036)" fill="none" stroke="#3a598c" stroke-linecap="round" stroke-linejoin="round" stroke-width="2"/>
    </g>
    <g id="Ellipse_15" data-name="Ellipse 15" transform="translate(102.941 376.83)" fill="none" stroke="#3a598c" stroke-width="2">
      <circle cx="5" cy="5" r="5" stroke="none"/>
      <circle cx="5" cy="5" r="4" fill="none"/>
    </g>
    <g id="Ellipse_18" data-name="Ellipse 18" transform="translate(248.941 398.83)" fill="none" stroke="#3a598c" stroke-width="2">
      <circle cx="5" cy="5" r="5" stroke="none"/>
      <circle cx="5" cy="5" r="4" fill="none"/>
    </g>
    <g id="Ellipse_16" data-name="Ellipse 16" transform="translate(75.941 431.83)" fill="none" stroke="#3a598c" stroke-width="2">
      <circle cx="5.5" cy="5.5" r="5.5" stroke="none"/>
      <circle cx="5.5" cy="5.5" r="4.5" fill="none"/>
    </g>
    <g id="Ellipse_17" data-name="Ellipse 17" transform="translate(218.941 445.83)" fill="none" stroke="#3a598c" stroke-width="2">
      <circle cx="3.5" cy="3.5" r="3.5" stroke="none"/>
      <circle cx="3.5" cy="3.5" r="2.5" fill="none"/>
    </g>
  </g>
</svg>
